<svg xmlns="http://www.w3.org/2000/svg" version="1.1" xmlns:xlink="http://www.w3.org/1999/xlink" xmlns:svgjs="http://svgjs.dev/svgjs" width="1500" height="1500" viewBox="0 0 1500 1500"><rect width="1500" height="1500" fill="#000000"></rect><g transform="matrix(0.6666666666666666,0,0,0.6666666666666666,249.39393939393938,609.8256773297164)"><svg viewBox="0 0 396 111" data-background-color="#dedede" preserveAspectRatio="xMidYMid meet" height="420" width="1500" xmlns="http://www.w3.org/2000/svg" xmlns:xlink="http://www.w3.org/1999/xlink"><g id="tight-bounds" transform="matrix(1,0,0,1,0.2400000000000091,0.06910648714810463)"><svg viewBox="0 0 395.52 110.86178702570379" height="110.86178702570379" width="395.52"><g><svg viewBox="0 0 395.52 110.86178702570379" height="110.86178702570379" width="395.52"><g><svg viewBox="0 0 395.52 110.86178702570379" height="110.86178702570379" width="395.52"><g id="textblocktransform"><svg viewBox="0 0 395.52 110.86178702570379" height="110.86178702570379" width="395.52" id="textblock"><g><svg viewBox="0 0 395.52 110.86178702570379" height="110.86178702570379" width="395.52"><g transform="matrix(1,0,0,1,0,0)"><svg width="395.52" viewBox="3.98 -38.57 139.61 39.13" height="110.86178702570379" data-palette-color="#000000"><path d="M13.67-15.33L13.67 0 3.98 0 3.98-35.16 29.22-35.16 29.22-30.66 13.67-30.66 13.67-19.8 25.68-19.8 25.68-15.33 13.67-15.33ZM60.47-28.2L60.47 0 52.22 0 52.22-3.37Q50.75-1.37 48.69-0.4 46.63 0.56 44.16 0.56L44.16 0.56Q40.94 0.56 38.4-0.59 35.86-1.73 34.1-3.72 32.35-5.71 31.42-8.4 30.49-11.08 30.49-14.16L30.49-14.16Q30.49-17.24 31.42-19.92 32.35-22.61 34.1-24.6 35.86-26.59 38.4-27.73 40.94-28.88 44.16-28.88L44.16-28.88Q45.8-28.88 47.28-28.39 48.75-27.91 49.99-27.01 51.22-26.12 52.16-24.87 53.1-23.61 53.64-22.07L53.64-22.07 57.3-28.2 60.47-28.2ZM52.17-14.16L52.17-14.16Q52.17-15.26 52.06-16.48 51.95-17.7 51.68-18.9 51.41-20.09 50.94-21.18 50.46-22.27 49.72-23.11 48.97-23.95 47.92-24.44 46.87-24.93 45.48-24.93L45.48-24.93Q44.09-24.93 43.06-24.43 42.04-23.93 41.31-23.08 40.57-22.24 40.1-21.14 39.62-20.04 39.35-18.85 39.08-17.65 38.97-16.44 38.86-15.23 38.86-14.16L38.86-14.16Q38.86-13.09 38.97-11.87 39.08-10.64 39.35-9.45 39.62-8.25 40.1-7.15 40.57-6.05 41.31-5.21 42.04-4.37 43.06-3.87 44.09-3.37 45.48-3.37L45.48-3.37Q46.75-3.37 47.74-3.89 48.73-4.42 49.47-5.3 50.22-6.18 50.73-7.3 51.24-8.42 51.56-9.62 51.88-10.82 52.02-12 52.17-13.18 52.17-14.16ZM93.38-21.22L93.38-21.22 89.81-19.8Q88.96-22.49 86.96-23.93 84.96-25.37 82.15-25.37L82.15-25.37Q80.63-25.37 79.45-24.89 78.27-24.41 77.38-23.58 76.48-22.75 75.86-21.66 75.24-20.56 74.85-19.31 74.46-18.07 74.29-16.74 74.12-15.41 74.12-14.16L74.12-14.16Q74.12-12.82 74.26-11.45 74.41-10.08 74.76-8.83 75.12-7.57 75.7-6.48 76.29-5.4 77.18-4.59 78.07-3.78 79.3-3.32 80.54-2.86 82.15-2.86L82.15-2.86Q83.44-2.86 84.61-3.25 85.79-3.64 86.76-4.35 87.74-5.05 88.5-6.03 89.25-7.01 89.69-8.2L89.69-8.2 93.28-6.88Q92.48-4.96 91.14-3.55 89.81-2.15 88.13-1.23 86.45-0.32 84.52 0.12 82.59 0.56 80.61 0.56L80.61 0.56Q77.41 0.56 74.68-0.52 71.94-1.61 69.95-3.58 67.96-5.54 66.84-8.24 65.72-10.94 65.72-14.16L65.72-14.16Q65.72-17.41 66.83-20.12 67.94-22.83 69.92-24.78 71.89-26.73 74.63-27.81 77.36-28.88 80.61-28.88L80.61-28.88Q82.66-28.88 84.61-28.43 86.57-27.98 88.24-27.04 89.91-26.1 91.24-24.66 92.57-23.22 93.38-21.22ZM108.88-24.93L108.88 0 100.6 0 100.6-24.93 95.48-24.93 95.48-28.2 100.6-28.2 100.6-38.57 108.88-38.57 108.88-28.2 117.42-28.2 117.42-24.93 108.88-24.93ZM143.59-3.27L143.59 0 119.72 0 119.72-3.27 119.72-3.27 134.49-24.93 119.72-24.93 119.72-28.2 143.59-28.2 143.59-24.93 128.82-3.27 143.59-3.27Z" opacity="1" transform="matrix(1,0,0,1,0,0)" fill="#ffffff" class="wordmark-text-0" data-fill-palette-color="primary" id="text-0"></path></svg></g></svg></g></svg></g></svg></g><g></g></svg></g><defs></defs></svg><rect width="395.52" height="110.86178702570379" fill="none" stroke="none" visibility="hidden"></rect></g></svg></g></svg>